<?xml version="1.0" standalone="no"?>
<svg xmlns="http://www.w3.org/2000/svg" viewBox="0 0 101.496 36" width="101.496" height="36"><g fill="#3282B8" color="#3282B8" transform="translate(0 3.9999999999999982) scale(0.2800001)"><svg width="100.0" height="100.0" x="0.0" y="0.0" viewBox="0 0 100 100"><rect x="5.9" y="8" width="36.6" height="36.6"></rect><path d="M32.6,61.9h7L28.5,51l-11.1,11h7c1,12.6,11.7,22.6,24.6,22.6v-8.1C40.6,76.4,33.6,70.1,32.6,61.9z"></path><path d="M66.7,38.4h-6.9l11.1,11.1L82,38.4h-7c-1-12.6-11.7-22.6-24.7-22.6V24C58.7,24,65.7,30.3,66.7,38.4z"></path><circle cx="73" cy="75.1" r="18.3"></circle></svg></g><path fill="#0F4C75" fill-rule="nonzero" d="M4.46 18.12L4.46 18.12Q3.38 18.12 2.72 17.71Q2.06 17.30 1.76 16.56Q1.46 15.82 1.46 14.81L1.46 14.81L1.46 5.76L0 5.76L0 4.06L1.46 4.06L1.46 0L4.03 0L4.03 4.06L6.26 4.06L6.26 5.76L4.03 5.76L4.03 14.64Q4.03 15.46 4.30 15.80Q4.56 16.15 5.30 16.15L5.30 16.15Q5.50 16.15 5.75 16.13Q6 16.10 6.24 16.08L6.24 16.08L6.24 17.98Q5.76 18.05 5.35 18.08Q4.94 18.12 4.46 18.12ZM10.80 17.93L8.23 17.93L8.23 4.06L10.80 4.06L10.80 6.02Q11.57 4.75 12.34 4.32Q13.10 3.89 13.87 3.89L13.87 3.89Q13.97 3.89 14.05 3.89Q14.14 3.89 14.28 3.91L14.28 3.91L14.28 6.74Q13.99 6.62 13.62 6.54Q13.25 6.46 12.86 6.46L12.86 6.46Q12.26 6.46 11.77 6.73Q11.28 7.01 10.80 7.80L10.80 7.80L10.80 17.93ZM17.86 18.12L17.86 18.12Q17.04 18.12 16.58 17.69Q16.13 17.26 15.95 16.61Q15.77 15.96 15.77 15.29L15.77 15.29L15.77 4.06L18.34 4.06L18.34 14.52Q18.34 15.26 18.55 15.68Q18.77 16.10 19.44 16.10L19.44 16.10Q19.87 16.10 20.34 15.85Q20.81 15.60 21.24 15.24L21.24 15.24L21.24 4.06L23.81 4.06L23.81 17.93L21.24 17.93L21.24 16.56Q20.57 17.21 19.72 17.66Q18.86 18.12 17.86 18.12ZM30.26 18.12L30.26 18.12Q28.63 18.12 27.74 17.48Q26.86 16.85 26.51 15.61Q26.16 14.38 26.16 12.58L26.16 12.58L26.16 9.41Q26.16 7.56 26.52 6.34Q26.88 5.11 27.78 4.49Q28.68 3.86 30.26 3.86L30.26 3.86Q32.02 3.86 32.84 4.58Q33.67 5.30 33.94 6.66Q34.20 8.02 34.20 9.91L34.20 9.91L34.20 11.04L28.73 11.04L28.73 13.82Q28.73 14.66 28.88 15.19Q29.04 15.72 29.39 15.97Q29.74 16.22 30.29 16.22L30.29 16.22Q30.86 16.22 31.16 15.95Q31.46 15.67 31.57 15.16Q31.68 14.64 31.68 13.94L31.68 13.94L31.68 13.10L34.18 13.10L34.18 13.63Q34.18 15.72 33.29 16.92Q32.40 18.12 30.26 18.12ZM28.73 8.90L28.73 9.65L31.68 9.65L31.68 8.40Q31.68 7.54 31.58 6.95Q31.49 6.36 31.19 6.06Q30.89 5.76 30.24 5.76L30.24 5.76Q29.62 5.76 29.29 6.05Q28.97 6.34 28.85 7.02Q28.73 7.70 28.73 8.90L28.73 8.90ZM44.57 22.49L42 22.49L42 17.04Q41.54 17.52 41.00 17.82Q40.46 18.12 39.77 18.12L39.77 18.12Q38.02 18.12 37.15 16.84Q36.29 15.55 36.29 12.48L36.29 12.48L36.29 9.79Q36.29 8.21 36.55 6.85Q36.82 5.50 37.55 4.68Q38.28 3.86 39.70 3.86L39.70 3.86Q40.39 3.86 40.97 4.18Q41.54 4.49 42 4.94L42 4.94L42 4.06L44.57 4.06L44.57 22.49ZM40.42 16.10L40.42 16.10Q40.78 16.10 41.20 15.97Q41.62 15.84 42 15.58L42 15.58L42 6.48Q41.66 6.24 41.26 6.06Q40.85 5.88 40.37 5.88L40.37 5.88Q39.48 5.88 39.17 6.73Q38.86 7.58 38.86 8.78L38.86 8.78L38.86 12.70Q38.86 13.66 38.96 14.44Q39.07 15.22 39.41 15.66Q39.74 16.10 40.42 16.10ZM49.15 18.12L49.15 18.12Q48.34 18.12 47.88 17.69Q47.42 17.26 47.24 16.61Q47.06 15.96 47.06 15.29L47.06 15.29L47.06 4.06L49.63 4.06L49.63 14.52Q49.63 15.26 49.85 15.68Q50.06 16.10 50.74 16.10L50.74 16.10Q51.17 16.10 51.64 15.85Q52.10 15.60 52.54 15.24L52.54 15.24L52.54 4.06L55.10 4.06L55.10 17.93L52.54 17.93L52.54 16.56Q51.86 17.21 51.01 17.66Q50.16 18.12 49.15 18.12ZM61.56 18.12L61.56 18.12Q59.93 18.12 59.04 17.48Q58.15 16.85 57.80 15.61Q57.46 14.38 57.46 12.58L57.46 12.58L57.46 9.41Q57.46 7.56 57.82 6.34Q58.18 5.11 59.08 4.49Q59.98 3.86 61.56 3.86L61.56 3.86Q63.31 3.86 64.14 4.58Q64.97 5.30 65.23 6.66Q65.50 8.02 65.50 9.91L65.50 9.91L65.50 11.04L60.02 11.04L60.02 13.82Q60.02 14.66 60.18 15.19Q60.34 15.72 60.68 15.97Q61.03 16.22 61.58 16.22L61.58 16.22Q62.16 16.22 62.46 15.95Q62.76 15.67 62.87 15.16Q62.98 14.64 62.98 13.94L62.98 13.94L62.98 13.10L65.47 13.10L65.47 13.63Q65.47 15.72 64.58 16.92Q63.70 18.12 61.56 18.12ZM60.02 8.90L60.02 9.65L62.98 9.65L62.98 8.40Q62.98 7.54 62.88 6.95Q62.78 6.36 62.48 6.06Q62.18 5.76 61.54 5.76L61.54 5.76Q60.91 5.76 60.59 6.05Q60.26 6.34 60.14 7.02Q60.02 7.70 60.02 8.90L60.02 8.90Z" transform="translate(36, 9.036)"></path></svg>